<svg width="145" height="51" viewBox="0 0 145 51" fill="none" xmlns="http://www.w3.org/2000/svg">
<path d="M17.3802 16.51C17.3802 17.71 17.0702 18.72 16.4502 19.54C15.8302 20.34 14.9902 20.95 13.9302 21.37C12.8902 21.79 11.7502 22 10.5102 22H0.220215V0.699951H11.6202C12.6202 0.699951 13.4802 0.969951 14.2002 1.50995C14.9402 2.02995 15.5002 2.70995 15.8802 3.54995C16.2802 4.36995 16.4802 5.22995 16.4802 6.12995C16.4802 7.14995 16.2202 8.11995 15.7002 9.03995C15.1802 9.95995 14.4202 10.64 13.4202 11.08C14.6402 11.44 15.6002 12.09 16.3002 13.03C17.0202 13.97 17.3802 15.13 17.3802 16.51ZM13.2102 15.73C13.2102 15.19 13.1002 14.71 12.8802 14.29C12.6602 13.85 12.3602 13.51 11.9802 13.27C11.6202 13.01 11.2002 12.88 10.7202 12.88H4.36022V18.49H10.5102C11.0102 18.49 11.4602 18.37 11.8602 18.13C12.2802 17.87 12.6102 17.53 12.8502 17.11C13.0902 16.69 13.2102 16.23 13.2102 15.73ZM4.36022 4.23995V9.60995H9.88022C10.3402 9.60995 10.7602 9.49995 11.1402 9.27995C11.5202 9.05995 11.8202 8.74995 12.0402 8.34995C12.2802 7.94995 12.4002 7.46995 12.4002 6.90995C12.4002 6.36995 12.2902 5.89995 12.0702 5.49995C11.8702 5.09995 11.5902 4.78995 11.2302 4.56995C10.8902 4.34995 10.5002 4.23995 10.0602 4.23995H4.36022Z" fill="white"/>
<path d="M19.4108 22V0.699951H28.8308C29.8108 0.699951 30.7108 0.899951 31.5308 1.29995C32.3708 1.69995 33.0908 2.23995 33.6908 2.91995C34.3108 3.59995 34.7808 4.35995 35.1008 5.19995C35.4408 6.03995 35.6108 6.89995 35.6108 7.77995C35.6108 8.67995 35.4508 9.54995 35.1308 10.39C34.8308 11.21 34.3908 11.93 33.8108 12.55C33.2308 13.17 32.5508 13.65 31.7708 13.99L36.6308 22H32.0708L27.6908 14.86H23.5508V22H19.4108ZM23.5508 11.23H28.7408C29.2608 11.23 29.7208 11.08 30.1208 10.78C30.5208 10.46 30.8408 10.04 31.0808 9.51995C31.3208 8.99995 31.4408 8.41995 31.4408 7.77995C31.4408 7.09995 31.3008 6.50995 31.0208 6.00995C30.7408 5.48995 30.3808 5.07995 29.9408 4.77995C29.5208 4.47995 29.0608 4.32995 28.5608 4.32995H23.5508V11.23Z" fill="white"/>
<path d="M38.162 22V0.699951H42.302V22H38.162Z" fill="white"/>
<path d="M45.546 22V0.699951H49.686V18.37H60.546V22H45.546Z" fill="white"/>
<path d="M61.8655 22V0.699951H66.0055V22H61.8655Z" fill="white"/>
<path d="M73.3895 8.31995V22H69.2495V0.699951H72.5495L83.5595 14.74V0.729951H87.6995V22H84.2495L73.3895 8.31995Z" fill="white"/>
<path d="M90.9304 22V0.699951H95.0704V22H90.9304Z" fill="white"/>
<path d="M50.1803 50.2399C48.6803 50.2399 47.2303 49.9999 45.8303 49.5199C44.4303 49.0199 43.2403 48.3399 42.2603 47.4799L44.8403 43.9099C44.9603 44.0899 45.2003 44.3299 45.5603 44.6299C45.9203 44.9099 46.3803 45.1999 46.9403 45.4999C47.5003 45.7799 48.1303 46.0199 48.8303 46.2199C49.5303 46.4199 50.2703 46.5199 51.0503 46.5199C51.8503 46.5199 52.5103 46.4199 53.0303 46.2199C53.5703 45.9999 53.9703 45.6999 54.2303 45.3199C54.4903 44.9199 54.6203 44.4599 54.6203 43.9399C54.6203 43.3999 54.4203 42.9699 54.0203 42.6499C53.6403 42.3299 53.1103 42.0499 52.4303 41.8099C51.7503 41.5499 50.9703 41.2799 50.0903 40.9999C49.0903 40.6799 48.2503 40.3199 47.5703 39.9199C46.8903 39.5199 46.3703 39.0399 46.0103 38.4799C45.6703 37.8999 45.5003 37.2099 45.5003 36.4099C45.5003 35.1699 45.7403 34.0599 46.2203 33.0799C46.7203 32.0999 47.3903 31.2799 48.2303 30.6199C49.0903 29.9399 50.0603 29.4299 51.1403 29.0899C52.2203 28.7299 53.3503 28.5499 54.5303 28.5499C55.4703 28.5499 56.3403 28.6599 57.1403 28.8799C57.9603 29.0999 58.7003 29.3899 59.3603 29.7499C60.0403 30.1099 60.6303 30.4999 61.1303 30.9199L58.5803 34.2799C58.5203 34.1399 58.3403 33.9499 58.0403 33.7099C57.7403 33.4699 57.3603 33.2399 56.9003 33.0199C56.4403 32.7999 55.9303 32.6099 55.3703 32.4499C54.8103 32.2699 54.2303 32.1799 53.6303 32.1799C52.8503 32.1799 52.1803 32.2999 51.6203 32.5399C51.0803 32.7799 50.6803 33.1099 50.4203 33.5299C50.1603 33.9499 50.0303 34.4499 50.0303 35.0299C50.0303 35.4699 50.1803 35.8399 50.4803 36.1399C50.8003 36.4399 51.2503 36.6999 51.8303 36.9199C52.4103 37.1199 53.1203 37.3499 53.9603 37.6099C55.0203 37.9099 55.9403 38.2699 56.7203 38.6899C57.5203 39.1099 58.1403 39.6399 58.5803 40.2799C59.0203 40.8999 59.2403 41.6999 59.2403 42.6799C59.2403 44.0199 58.9803 45.1699 58.4603 46.1299C57.9603 47.0899 57.2803 47.8699 56.4203 48.4699C55.5603 49.0699 54.5903 49.5199 53.5103 49.8199C52.4503 50.0999 51.3403 50.2399 50.1803 50.2399Z" fill="white"/>
<path d="M68.1142 32.3299H61.7242L62.4742 28.6999H79.3642L78.5842 32.3299H72.2242L68.4742 49.9999H64.3342L68.1142 32.3299Z" fill="white"/>
<path d="M84.8481 50.1499C83.1481 50.1499 81.7781 49.8299 80.7381 49.1899C79.7181 48.5499 78.9781 47.6899 78.5181 46.6099C78.0581 45.5299 77.8281 44.3099 77.8281 42.9499C77.8281 42.4099 77.8581 41.8599 77.9181 41.2999C77.9781 40.7199 78.0781 40.1399 78.2181 39.5599L80.5281 28.6999H84.6381L82.3281 39.5599C82.2281 40.0199 82.1481 40.4699 82.0881 40.9099C82.0481 41.3499 82.0281 41.7899 82.0281 42.2299C82.0281 43.0299 82.1381 43.7499 82.3581 44.3899C82.5781 45.0299 82.9481 45.5399 83.4681 45.9199C84.0081 46.2999 84.7181 46.4899 85.5981 46.4899C86.5181 46.4899 87.3181 46.2999 87.9981 45.9199C88.6981 45.5199 89.2981 44.9899 89.7981 44.3299C90.3181 43.6699 90.7381 42.9299 91.0581 42.1099C91.3981 41.2699 91.6681 40.4199 91.8681 39.5599L94.1781 28.6999H98.2881L95.9781 39.5599C95.6781 41.0199 95.2181 42.3899 94.5981 43.6699C93.9781 44.9499 93.2081 46.0799 92.2881 47.0599C91.3681 48.0199 90.2881 48.7799 89.0481 49.3399C87.8081 49.8799 86.4081 50.1499 84.8481 50.1499Z" fill="white"/>
<path d="M101.22 28.6999H108.63C110.47 28.6999 111.98 29.0699 113.16 29.8099C114.34 30.5299 115.22 31.5099 115.8 32.7499C116.38 33.9899 116.67 35.3899 116.67 36.9499C116.67 38.8299 116.35 40.5699 115.71 42.1699C115.09 43.7499 114.21 45.1299 113.07 46.3099C111.95 47.4699 110.62 48.3799 109.08 49.0399C107.56 49.6799 105.9 49.9999 104.1 49.9999H96.6899L101.22 28.6999ZM104.85 46.3699C106.01 46.3699 107.05 46.1399 107.97 45.6799C108.91 45.1999 109.71 44.5499 110.37 43.7299C111.03 42.8899 111.53 41.9399 111.87 40.8799C112.23 39.8199 112.41 38.7099 112.41 37.5499C112.41 36.5099 112.24 35.5999 111.9 34.8199C111.56 34.0399 111.05 33.4299 110.37 32.9899C109.71 32.5499 108.87 32.3299 107.85 32.3299H104.55L101.58 46.3699H104.85Z" fill="white"/>
<path d="M120.791 28.7299H124.901L120.371 49.9999H116.261L120.791 28.7299Z" fill="white"/>
<path d="M132.286 50.1499C131.026 50.1499 129.906 49.9099 128.926 49.4299C127.946 48.9499 127.116 48.2999 126.436 47.4799C125.776 46.6399 125.276 45.6899 124.936 44.6299C124.596 43.5699 124.426 42.4599 124.426 41.2999C124.426 40.0199 124.646 38.7599 125.086 37.5199C125.526 36.2599 126.136 35.0999 126.916 34.0399C127.716 32.9599 128.646 32.0099 129.706 31.1899C130.766 30.3699 131.906 29.7299 133.126 29.2699C134.366 28.7899 135.646 28.5499 136.966 28.5499C138.206 28.5499 139.306 28.7999 140.266 29.2999C141.246 29.7799 142.066 30.4399 142.726 31.2799C143.406 32.1199 143.906 33.0699 144.226 34.1299C144.566 35.1899 144.736 36.2999 144.736 37.4599C144.736 38.7399 144.516 39.9999 144.076 41.2399C143.636 42.4599 143.026 43.6099 142.246 44.6899C141.466 45.7699 140.546 46.7199 139.486 47.5399C138.446 48.3599 137.306 48.9999 136.066 49.4599C134.846 49.9199 133.586 50.1499 132.286 50.1499ZM133.096 46.4899C134.196 46.4899 135.196 46.2299 136.096 45.7099C137.016 45.1699 137.806 44.4699 138.466 43.6099C139.146 42.7499 139.656 41.8099 139.996 40.7899C140.356 39.7499 140.536 38.7399 140.536 37.7599C140.536 36.7599 140.366 35.8499 140.026 35.0299C139.706 34.1899 139.216 33.5199 138.556 33.0199C137.916 32.4999 137.096 32.2399 136.096 32.2399C134.996 32.2399 133.986 32.4999 133.066 33.0199C132.166 33.5399 131.386 34.2299 130.726 35.0899C130.066 35.9499 129.546 36.8999 129.166 37.9399C128.806 38.9599 128.626 39.9699 128.626 40.9699C128.626 41.9499 128.786 42.8599 129.106 43.6999C129.446 44.5399 129.946 45.2199 130.606 45.7399C131.266 46.2399 132.096 46.4899 133.096 46.4899Z" fill="white"/>
</svg>
